<?xml version="1.0" encoding="UTF-8"?>
<svg xmlns="http://www.w3.org/2000/svg" xmlns:xlink="http://www.w3.org/1999/xlink" width="108pt" height="108pt" viewBox="0 0 108 108" version="1.1">
<g id="surface859">
<path style=" stroke:none;fill-rule:nonzero;fill:rgb(9.803922%,30.19608%,96.078432%);fill-opacity:1;" d="M 34.875 11.25 C 26.839844 11.25 20.25 17.839844 20.25 25.875 L 20.25 76.5 L 12.375 76.5 C 9.308594 76.5 6.75 79.058594 6.75 82.125 L 6.75 86.625 C 6.75 92.175781 11.324219 96.75 16.875 96.75 L 77.625 96.75 C 77.8125 96.746094 77.996094 96.726562 78.179688 96.691406 C 83.472656 96.394531 87.75 91.988281 87.75 86.625 L 87.75 31.5 L 95.625 31.5 C 98.691406 31.5 101.25 28.941406 101.25 25.875 L 101.25 21.375 C 101.25 16.003906 96.960938 11.589844 91.65625 11.304688 C 91.480469 11.269531 91.304688 11.253906 91.125 11.25 Z M 34.875 18 L 81.691406 18 C 81.304688 19.066406 81 20.179688 81 21.375 L 81 27.570312 C 80.941406 27.933594 80.941406 28.304688 81 28.664062 L 81 86.625 C 81 88.53125 79.53125 90 77.625 90 C 75.71875 90 74.25 88.53125 74.25 86.625 L 74.25 82.125 C 74.25 79.058594 71.691406 76.5 68.625 76.5 L 27 76.5 L 27 25.875 C 27 21.488281 30.488281 18 34.875 18 Z M 91.125 18 C 93.03125 18 94.5 19.46875 94.5 21.375 L 94.5 24.75 L 87.75 24.75 L 87.75 21.375 C 87.75 19.46875 89.21875 18 91.125 18 Z M 68.558594 35.96875 C 67.683594 35.996094 66.851562 36.359375 66.238281 36.988281 L 48.375 54.851562 L 41.761719 48.238281 C 40.914062 47.355469 39.65625 47.003906 38.476562 47.308594 C 37.292969 47.617188 36.367188 48.542969 36.058594 49.726562 C 35.753906 50.90625 36.105469 52.164062 36.988281 53.011719 L 45.988281 62.011719 C 47.308594 63.328125 49.441406 63.328125 50.761719 62.011719 L 71.011719 41.761719 C 72.007812 40.789062 72.308594 39.308594 71.765625 38.027344 C 71.222656 36.746094 69.949219 35.929688 68.558594 35.96875 Z M 13.5 83.25 L 23.070312 83.25 C 23.433594 83.308594 23.804688 83.308594 24.164062 83.25 L 67.5 83.25 L 67.5 86.625 C 67.5 87.820312 67.804688 88.933594 68.191406 90 L 16.875 90 C 14.96875 90 13.5 88.53125 13.5 86.625 Z M 13.5 83.25 "/>
</g>
</svg>
